<svg width="60" height="60" viewBox="0 0 60 60" fill="none" xmlns="http://www.w3.org/2000/svg">
<path d="M30 0C13.5 0 0 13.497 0 30.1203C0 45.1504 10.98 57.6254 25.32 59.8799V38.8378H17.7V30.1203H25.32V23.477C25.32 15.9319 29.79 11.7836 36.66 11.7836C39.93 11.7836 43.3499 12.3547 43.3499 12.3547V19.7796H39.57C35.85 19.7796 34.68 22.0942 34.68 24.469V30.1203H43.0199L41.6699 38.8378H34.68V59.8799C41.7493 58.7612 48.1866 55.147 52.8297 49.6897C57.4729 44.2324 60.016 37.2916 59.9999 30.1203C59.9999 13.497 46.4999 0 30 0Z" fill="#CACACA"/>
</svg>
