<svg id="percentMob" width="85" height="44" viewBox="0 0 85 44" fill="none" xmlns="http://www.w3.org/2000/svg">
<path d="M83.5 21.6164C83.5 26.7248 79.3942 31.7385 71.872 35.5645C64.4324 39.3484 54.0501 41.7328 42.5 41.7328C30.9499 41.7328 20.5676 39.3484 13.128 35.5645C5.60582 31.7385 1.5 26.7248 1.5 21.6164C1.5 16.508 5.60582 11.4942 13.128 7.66829C20.5676 3.88436 30.9499 1.5 42.5 1.5C54.0501 1.5 64.4324 3.88436 71.872 7.66829C79.3942 11.4942 83.5 16.508 83.5 21.6164Z" stroke="#FFF500" stroke-width="3"/>
<path d="M13.9224 23.7851V20.7352H22.3754V23.7851H13.9224Z" fill="#FFF500"/>
<path d="M24.2228 28.142V24.6565L29.3164 21.4977C30.5157 20.7715 31.3538 20.1398 31.8306 19.6024C32.3219 19.0505 32.5675 18.4841 32.5675 17.9032C32.5675 17.3949 32.3869 16.981 32.0257 16.6615C31.6789 16.3274 31.2093 16.1604 30.6168 16.1604C29.7065 16.1604 29.0346 16.4509 28.6011 17.0318C28.4277 17.2642 28.3049 17.5547 28.2326 17.9032H24.1145C24.259 16.9156 24.5985 16.0079 25.1332 15.1801C26.3181 13.3647 28.1459 12.457 30.6168 12.457C32.5242 12.457 34.027 12.9508 35.1251 13.9384C36.2378 14.926 36.7941 16.175 36.7941 17.6854C36.7941 18.9344 36.4401 20.0091 35.732 20.9095C35.024 21.7954 33.9692 22.645 32.5675 23.4583L31.0503 24.3297L30.1833 24.6565V24.8743L31.7006 24.6565H36.7941V28.142H24.2228Z" fill="#FFF500"/>
<path d="M40.6797 26.3339C39.2492 24.838 38.534 22.8992 38.534 20.5174C38.534 18.1356 39.2492 16.1967 40.6797 14.7009C42.1247 13.205 43.9381 12.457 46.1201 12.457C48.302 12.457 50.1082 13.205 51.5387 14.7009C52.9837 16.1967 53.7061 18.1356 53.7061 20.5174C53.7061 22.8992 52.9837 24.838 51.5387 26.3339C50.1082 27.8298 48.302 28.5777 46.1201 28.5777C43.9381 28.5777 42.1247 27.8298 40.6797 26.3339ZM43.6708 17.2715C43.0639 18.0121 42.7605 19.0941 42.7605 20.5174C42.7605 21.9406 43.0639 23.0226 43.6708 23.7633C44.2777 24.504 45.0941 24.8743 46.1201 24.8743C47.146 24.8743 47.9624 24.504 48.5693 23.7633C49.1762 23.0226 49.4796 21.9406 49.4796 20.5174C49.4796 19.0941 49.1762 18.0121 48.5693 17.2715C47.9624 16.5308 47.146 16.1604 46.1201 16.1604C45.0941 16.1604 44.2777 16.5308 43.6708 17.2715Z" fill="#FFF500"/>
<path d="M56.4214 19.0142C55.6989 18.3026 55.3377 17.4239 55.3377 16.3783C55.3377 15.3326 55.6989 14.454 56.4214 13.7423C57.1439 13.0307 58.047 12.6749 59.1307 12.6749C60.2144 12.6749 61.1175 13.0307 61.84 13.7423C62.5625 14.454 62.9237 15.3326 62.9237 16.3783C62.9237 17.4239 62.5625 18.3026 61.84 19.0142C61.1175 19.7259 60.2144 20.0817 59.1307 20.0817C58.047 20.0817 57.1439 19.7259 56.4214 19.0142ZM57.6135 28.142L66.7168 12.8927H69.5345L60.4312 28.142H57.6135ZM58.1987 15.4415C57.953 15.6884 57.8302 16.0007 57.8302 16.3783C57.8302 16.7559 57.953 17.0681 58.1987 17.315C58.4443 17.5619 58.755 17.6854 59.1307 17.6854C59.5064 17.6854 59.8171 17.5619 60.0627 17.315C60.3083 17.0681 60.4312 16.7559 60.4312 16.3783C60.4312 16.0007 60.3083 15.6884 60.0627 15.4415C59.8171 15.1946 59.5064 15.0712 59.1307 15.0712C58.755 15.0712 58.4443 15.1946 58.1987 15.4415ZM65.3079 27.2924C64.5854 26.5808 64.2242 25.7021 64.2242 24.6565C64.2242 23.6108 64.5854 22.7322 65.3079 22.0205C66.0304 21.3089 66.9335 20.9531 68.0173 20.9531C69.101 20.9531 70.0041 21.3089 70.7266 22.0205C71.4491 22.7322 71.8103 23.6108 71.8103 24.6565C71.8103 25.7021 71.4491 26.5808 70.7266 27.2924C70.0041 28.0041 69.101 28.3599 68.0173 28.3599C66.9335 28.3599 66.0304 28.0041 65.3079 27.2924ZM67.0852 23.7197C66.8396 23.9666 66.7168 24.2789 66.7168 24.6565C66.7168 25.0341 66.8396 25.3463 67.0852 25.5932C67.3309 25.8401 67.6416 25.9636 68.0173 25.9636C68.3929 25.9636 68.7036 25.8401 68.9493 25.5932C69.1949 25.3463 69.3177 25.0341 69.3177 24.6565C69.3177 24.2789 69.1949 23.9666 68.9493 23.7197C68.7036 23.4728 68.3929 23.3494 68.0173 23.3494C67.6416 23.3494 67.3309 23.4728 67.0852 23.7197Z" fill="#FFF500"/>
</svg>
